# xmcd CD database file
#
# Track frame offsets:
#	183
#	12415
#	25813
#	40040
#	54073
#	69443
#	81805
#	94428
#	108153
#	122758
#	136523
#	149245
#	163695
#	177600
#	189798
#	201908
#	213850
#	226198
#	238823
#	250753
#	264588
#	273665
#	283490
#	296045
#
# Disc length: 4101 seconds
#
# Revision: 2
# Processed by: cddbd v1.4PL0 Copyright (c) Steve Scherf et al.
# Submitted via: CDex 1.51
#
DISCID=64100318
DTITLE=Little Walter - Blues With A Feeling
DYEAR=1900
DGENRE=
TTITLE0=Juke (W Jacobs)
TTITLE1=Can t Hold Out Much Longer (W Jacobs)
TTITLE2=Sad Hours (W Jacobs)
TTITLE3=Blues With a Feeling (W Jacobs)
TTITLE4=Crazy Legs (W Jacobs)
TTITLE5=Tell Me Mama (W Jacobs)
TTITLE6=Off The Wall (W Jacobs)
TTITLE7=You re So Fine (W Jacobs)
TTITLE8=Blue Lights (W Jacobs)
TTITLE9=You Better Watch Yourself (W Jacobs)
TTITLE10=I Got To Find My Baby (W Jacobs)
TTITLE11=Quarter To Twelve and Lights Out (W Jacobs)
TTITLE12=Rocker (W Jacobs)
TTITLE13=Last Night (W Jacobs)
TTITLE14=Mellow Down Easy (W Dixon)
TTITLE15=My Babe (W Dixon)
TTITLE16=I Got To Go (W Jacobs)
TTITLE17=One More Chance With You (W Jacobs)
TTITLE18=Temperature (W Jacobs)
TTITLE19=Confessin  The Blues (W Jacobs)
TTITLE20=Crazy Mixed Up World (W Dixon)
TTITLE21=Rock Bottom (W Jacobs)
TTITLE22=Key To The Highway (W Jacobs)
TTITLE23=The Toddle (W Jacobs)
EXTD=
EXTT0=
EXTT1=
EXTT2=
EXTT3=
EXTT4=
EXTT5=
EXTT6=
EXTT7=
EXTT8=
EXTT9=
EXTT10=
EXTT11=
EXTT12=
EXTT13=
EXTT14=
EXTT15=
EXTT16=
EXTT17=
EXTT18=
EXTT19=
EXTT20=
EXTT21=
EXTT22=
EXTT23=
PLAYORDER=
